<svg width="80" height="25" viewBox="0 0 80 25" fill="none" xmlns="http://www.w3.org/2000/svg">
<path d="M10.0312 19.3281C10.0312 19.0052 9.9375 18.7135 9.75 18.4531C9.5625 18.1927 9.21354 17.9531 8.70312 17.7344C8.20312 17.5052 7.47917 17.2969 6.53125 17.1094C5.67708 16.9219 4.88021 16.6875 4.14062 16.4062C3.41146 16.1146 2.77604 15.7656 2.23438 15.3594C1.70312 14.9531 1.28646 14.474 0.984375 13.9219C0.682292 13.3594 0.53125 12.7188 0.53125 12C0.53125 11.2917 0.682292 10.625 0.984375 10C1.29688 9.375 1.73958 8.82292 2.3125 8.34375C2.89583 7.85417 3.60417 7.47396 4.4375 7.20312C5.28125 6.92188 6.22917 6.78125 7.28125 6.78125C8.75 6.78125 10.0104 7.01562 11.0625 7.48438C12.125 7.95312 12.9375 8.59896 13.5 9.42188C14.0729 10.2344 14.3594 11.1615 14.3594 12.2031H9.85938C9.85938 11.7656 9.76562 11.375 9.57812 11.0312C9.40104 10.6771 9.11979 10.401 8.73438 10.2031C8.35938 9.99479 7.86979 9.89062 7.26562 9.89062C6.76562 9.89062 6.33333 9.97917 5.96875 10.1562C5.60417 10.3229 5.32292 10.5521 5.125 10.8438C4.9375 11.125 4.84375 11.4375 4.84375 11.7812C4.84375 12.0417 4.89583 12.276 5 12.4844C5.11458 12.6823 5.29688 12.8646 5.54688 13.0312C5.79688 13.1979 6.11979 13.3542 6.51562 13.5C6.92188 13.6354 7.42188 13.7604 8.01562 13.875C9.23438 14.125 10.3229 14.4531 11.2812 14.8594C12.2396 15.2552 13 15.7969 13.5625 16.4844C14.125 17.1615 14.4062 18.0521 14.4062 19.1562C14.4062 19.9062 14.2396 20.5938 13.9062 21.2188C13.5729 21.8438 13.0938 22.3906 12.4688 22.8594C11.8438 23.3177 11.0938 23.6771 10.2188 23.9375C9.35417 24.1875 8.38021 24.3125 7.29688 24.3125C5.72396 24.3125 4.39062 24.0312 3.29688 23.4688C2.21354 22.9062 1.39062 22.1927 0.828125 21.3281C0.276042 20.4531 0 19.5573 0 18.6406H4.26562C4.28646 19.2552 4.44271 19.75 4.73438 20.125C5.03646 20.5 5.41667 20.7708 5.875 20.9375C6.34375 21.1042 6.84896 21.1875 7.39062 21.1875C7.97396 21.1875 8.45833 21.1094 8.84375 20.9531C9.22917 20.7865 9.52083 20.5677 9.71875 20.2969C9.92708 20.0156 10.0312 19.6927 10.0312 19.3281ZM16.6094 15.7188V15.3906C16.6094 14.151 16.7865 13.0104 17.1406 11.9688C17.4948 10.9167 18.0104 10.0052 18.6875 9.23438C19.3646 8.46354 20.1979 7.86458 21.1875 7.4375C22.1771 7 23.3125 6.78125 24.5938 6.78125C25.875 6.78125 27.0156 7 28.0156 7.4375C29.0156 7.86458 29.8542 8.46354 30.5312 9.23438C31.2188 10.0052 31.7396 10.9167 32.0938 11.9688C32.4479 13.0104 32.625 14.151 32.625 15.3906V15.7188C32.625 16.9479 32.4479 18.0885 32.0938 19.1406C31.7396 20.1823 31.2188 21.0938 30.5312 21.875C29.8542 22.6458 29.0208 23.2448 28.0312 23.6719C27.0417 24.099 25.9062 24.3125 24.625 24.3125C23.3438 24.3125 22.2031 24.099 21.2031 23.6719C20.2135 23.2448 19.375 22.6458 18.6875 21.875C18.0104 21.0938 17.4948 20.1823 17.1406 19.1406C16.7865 18.0885 16.6094 16.9479 16.6094 15.7188ZM21.1094 15.3906V15.7188C21.1094 16.4271 21.1719 17.0885 21.2969 17.7031C21.4219 18.3177 21.6198 18.8594 21.8906 19.3281C22.1719 19.7865 22.5365 20.1458 22.9844 20.4062C23.4323 20.6667 23.9792 20.7969 24.625 20.7969C25.25 20.7969 25.7865 20.6667 26.2344 20.4062C26.6823 20.1458 27.0417 19.7865 27.3125 19.3281C27.5833 18.8594 27.7812 18.3177 27.9062 17.7031C28.0417 17.0885 28.1094 16.4271 28.1094 15.7188V15.3906C28.1094 14.7031 28.0417 14.0573 27.9062 13.4531C27.7812 12.8385 27.5781 12.2969 27.2969 11.8281C27.026 11.349 26.6667 10.974 26.2188 10.7031C25.7708 10.4323 25.2292 10.2969 24.5938 10.2969C23.9583 10.2969 23.4167 10.4323 22.9688 10.7031C22.5312 10.974 22.1719 11.349 21.8906 11.8281C21.6198 12.2969 21.4219 12.8385 21.2969 13.4531C21.1719 14.0573 21.1094 14.7031 21.1094 15.3906ZM40.1406 0V24H35.625V0H40.1406ZM48.6094 0V24H44.0938V0H48.6094ZM60.1094 24.3125C58.7969 24.3125 57.6198 24.1042 56.5781 23.6875C55.5365 23.2604 54.651 22.6719 53.9219 21.9219C53.2031 21.1719 52.651 20.3021 52.2656 19.3125C51.8802 18.3125 51.6875 17.25 51.6875 16.125V15.5C51.6875 14.2188 51.8698 13.0469 52.2344 11.9844C52.599 10.9219 53.1198 10 53.7969 9.21875C54.4844 8.4375 55.3177 7.83854 56.2969 7.42188C57.276 6.99479 58.3802 6.78125 59.6094 6.78125C60.8073 6.78125 61.8698 6.97917 62.7969 7.375C63.724 7.77083 64.5 8.33333 65.125 9.0625C65.7604 9.79167 66.2396 10.6667 66.5625 11.6875C66.8854 12.6979 67.0469 13.8229 67.0469 15.0625V16.9375H53.6094V13.9375H62.625V13.5938C62.625 12.9688 62.5104 12.4115 62.2812 11.9219C62.0625 11.4219 61.7292 11.026 61.2812 10.7344C60.8333 10.4427 60.2604 10.2969 59.5625 10.2969C58.9688 10.2969 58.4583 10.4271 58.0312 10.6875C57.6042 10.9479 57.2552 11.3125 56.9844 11.7812C56.724 12.25 56.526 12.8021 56.3906 13.4375C56.2656 14.0625 56.2031 14.75 56.2031 15.5V16.125C56.2031 16.8021 56.2969 17.4271 56.4844 18C56.6823 18.5729 56.9583 19.0677 57.3125 19.4844C57.6771 19.901 58.1146 20.224 58.625 20.4531C59.1458 20.6823 59.7344 20.7969 60.3906 20.7969C61.2031 20.7969 61.9583 20.6406 62.6562 20.3281C63.3646 20.0052 63.974 19.5208 64.4844 18.875L66.6719 21.25C66.3177 21.7604 65.8333 22.25 65.2188 22.7188C64.6146 23.1875 63.8854 23.5729 63.0312 23.875C62.1771 24.1667 61.2031 24.3125 60.1094 24.3125ZM74.1094 10.7812V24H69.6094V7.09375H73.8438L74.1094 10.7812ZM79.2031 6.98438L79.125 11.1562C78.9062 11.125 78.6406 11.099 78.3281 11.0781C78.026 11.0469 77.75 11.0312 77.5 11.0312C76.8646 11.0312 76.3125 11.1146 75.8438 11.2812C75.3854 11.4375 75 11.6719 74.6875 11.9844C74.3854 12.2969 74.1562 12.6771 74 13.125C73.8542 13.5729 73.7708 14.0833 73.75 14.6562L72.8438 14.375C72.8438 13.2812 72.9531 12.276 73.1719 11.3594C73.3906 10.4323 73.7083 9.625 74.125 8.9375C74.5521 8.25 75.0729 7.71875 75.6875 7.34375C76.3021 6.96875 77.0052 6.78125 77.7969 6.78125C78.0469 6.78125 78.3021 6.80208 78.5625 6.84375C78.8229 6.875 79.0365 6.92188 79.2031 6.98438Z" fill="#0F172A"/>
</svg>
